<svg aria-hidden="true" style="position:absolute;width:0;height:0;overflow:hidden" xmlns="http://www.w3.org/2000/svg">
  <defs>
    <symbol id="icon-close" viewBox="0 0 32 32">
      <path fill="#4c00fe" style="fill:var(--color1, #4c00fe)" d="M1.646 32a1.646 1.646 0 0 1-1.163-2.811L29.19.482a1.646 1.646 0 1 1 2.328 2.329L2.811 31.517A1.65 1.65 0 0 1 1.646 32z"/>
      <path fill="#4c00fe" style="fill:var(--color1, #4c00fe)" d="M30.355 32a1.63 1.63 0 0 1-1.163-.483L.483 2.811A1.647 1.647 0 0 1 2.812.482l28.707 28.707A1.646 1.646 0 0 1 30.356 32z"/>
    </symbol>
    <symbol id="icon-ticket1" viewBox="0 0 44 32">
      <path d="M4.91 1.27H0v29.46h4.91V1.27zM17.26 1.27h-4.91v29.46h4.91V1.27zM24.699 1.27h-4.91v29.46h4.91V1.27zM44.19 1.27h-7.291v29.46h7.291V1.27zM9.82 1.27H7.439v29.46H9.82V1.27zM29.46 1.27h-2.381v29.46h2.381V1.27zM34.37 1.27h-2.381v29.46h2.381V1.27z"/>
    </symbol>
  </defs>
</svg>
