<svg aria-hidden="true" style="position:absolute;width:0;height:0;overflow:hidden" xmlns="http://www.w3.org/2000/svg">
  <defs>
    <symbol id="icon-twitter" viewBox="0 0 34 32">
      <path d="M34.133 3.67a13.41 13.41 0 0 1-4.032 1.235c1.451-.968 2.558-2.49 3.078-4.324a13.135 13.135 0 0 1-4.437 1.893C27.458.945 25.627-.001 23.631-.001c-3.874 0-6.993 3.515-6.993 7.824 0 .62.047 1.216.162 1.784C10.982 9.29 5.835 6.173 2.377 1.425a8.592 8.592 0 0 0-.958 3.954c0 2.709 1.248 5.111 3.108 6.501-1.124-.024-2.227-.389-3.162-.963v.086c0 3.801 2.426 6.959 5.606 7.686-.57.174-1.19.258-1.835.258-.448 0-.9-.029-1.325-.134.907 3.098 3.479 5.375 6.539 5.449-2.381 2.082-5.404 3.336-8.676 3.336-.574 0-1.124-.029-1.675-.107 3.1 2.235 6.773 3.51 10.735 3.51 12.877 0 19.917-11.924 19.917-22.259 0-.346-.011-.68-.026-1.011 1.389-1.102 2.556-2.478 3.507-4.061z"/>
    </symbol>
    <symbol id="icon-instagram" viewBox="0 0 32 32">
      <path d="M16.316 32h-.319c-2.508.006-4.826-.058-7.08-.195-2.066-.126-3.953-.84-5.455-2.065-1.45-1.182-2.44-2.781-2.942-4.75-.438-1.715-.461-3.398-.483-5.026a343.853 343.853 0 0 1-.036-3.96c.003-1.414.02-2.798.036-3.966.022-1.628.045-3.311.483-5.026.503-1.97 1.493-3.568 2.942-4.75C4.965 1.037 6.851.323 8.918.197 11.172.06 13.49-.004 16.004.002c2.509-.005 4.826.058 7.08.195 2.066.126 3.953.84 5.455 2.065 1.45 1.182 2.44 2.781 2.943 4.75.437 1.715.461 3.398.483 5.026.016 1.168.033 2.553.036 3.96v.006c-.003 1.408-.02 2.792-.036 3.96-.022 1.628-.045 3.311-.483 5.026-.503 1.97-1.493 3.568-2.943 4.75-1.502 1.225-3.389 1.939-5.455 2.065-2.159.131-4.376.195-6.768.195zm-.319-2.5c2.468.006 4.733-.056 6.934-.19 1.563-.095 2.917-.602 4.027-1.507 1.026-.837 1.732-1.991 2.1-3.431.364-1.428.385-2.96.406-4.442.016-1.16.032-2.535.036-3.929-.004-1.394-.02-2.769-.036-3.929-.02-1.482-.041-3.015-.406-4.443-.367-1.44-1.074-2.594-2.1-3.431-1.11-.905-2.465-1.412-4.027-1.507a108.807 108.807 0 0 0-6.928-.19c-2.467-.006-4.733.056-6.934.19-1.563.095-2.917.602-4.027 1.507-1.026.837-1.732 1.991-2.1 3.431-.364 1.428-.385 2.96-.406 4.443a363.726 363.726 0 0 0-.036 3.932c.003 1.389.02 2.765.036 3.926.02 1.482.041 3.015.406 4.442.367 1.44 1.074 2.594 2.1 3.431 1.11.905 2.465 1.412 4.027 1.507 2.201.134 4.467.197 6.928.191zm-.06-5.688c-4.308 0-7.813-3.505-7.813-7.812s3.505-7.813 7.813-7.813S23.75 11.692 23.75 16s-3.505 7.812-7.813 7.812zm0-13.125c-2.929 0-5.313 2.383-5.313 5.313s2.383 5.312 5.313 5.312c2.93 0 5.313-2.383 5.313-5.312s-2.383-5.313-5.313-5.313zm8.688-5a1.875 1.875 0 1 0 0 3.75 1.875 1.875 0 0 0 0-3.75z"/>
    </symbol>
    <symbol id="icon-facebook" viewBox="0 0 32 32">
      <path d="M22.512.007 18.895 0c-4.064 0-6.69 3.091-6.69 7.875v3.631H8.568c-.314 0-.569.292-.569.653v5.261c0 .361.255.652.569.652h3.637v13.275c0 .36.254.652.569.652h4.745c.314 0 .569-.292.569-.652V18.072h4.252c.314 0 .569-.292.569-.652l.002-5.261c0-.173-.06-.339-.167-.461s-.252-.191-.402-.191h-4.254V8.429c0-1.479.307-2.23 1.987-2.23l2.437-.001c.314 0 .568-.292.568-.652V.661c0-.36-.254-.652-.568-.652z"/>
    </symbol>
  </defs>
</svg>
