<svg width="16" height="15" viewBox="0 0 16 15" fill="none" xmlns="http://www.w3.org/2000/svg">
<path d="M16 1.72037C15.405 2.01212 14.771 2.20551 14.11 2.29941C14.79 1.84556 15.309 1.13238 15.553 0.272755C14.919 0.695301 14.219 0.993766 13.473 1.16032C12.871 0.443785 12.013 0 11.077 0C9.261 0 7.799 1.64771 7.799 3.66765C7.799 3.95829 7.821 4.23776 7.875 4.5038C5.148 4.35513 2.735 2.8941 1.114 0.668472C0.831 1.21733 0.665 1.84556 0.665 2.52186C0.665 3.79174 1.25 4.91741 2.122 5.56911C1.595 5.55793 1.078 5.3869 0.64 5.1175C0.64 5.12868 0.64 5.14321 0.64 5.15774C0.64 6.93959 1.777 8.41962 3.268 8.76056C3.001 8.84217 2.71 8.88129 2.408 8.88129C2.198 8.88129 1.986 8.86788 1.787 8.81869C2.212 10.2708 3.418 11.3383 4.852 11.373C3.736 12.3489 2.319 12.9368 0.785 12.9368C0.516 12.9368 0.258 12.9234 0 12.8865C1.453 13.934 3.175 14.532 5.032 14.532C11.068 14.532 14.368 8.94277 14.368 4.09803C14.368 3.93594 14.363 3.77944 14.356 3.62406C15.007 3.10761 15.554 2.46262 16 1.72037Z" fill="#2E2520"/>
</svg>
